<svg xmlns="http://www.w3.org/2000/svg" version="1.1" xmlns:xlink="http://www.w3.org/1999/xlink" xmlns:svgjs="http://svgjs.dev/svgjs" width="2000" height="606" viewBox="0 0 2000 606"><g transform="matrix(1,0,0,1,-1.2112696095522324,-1.0497257182422004)"><svg viewBox="0 0 396 120" data-background-color="#282634" preserveAspectRatio="xMidYMid meet" height="606" width="2000" xmlns="http://www.w3.org/2000/svg" xmlns:xlink="http://www.w3.org/1999/xlink"><g id="tight-bounds" transform="matrix(1,0,0,1,0.24008861730862918,0.20786647885984166)"><svg viewBox="0 0 395.52 119.58426704228035" height="119.58426704228035" width="395.52"><g><svg viewBox="0 0 395.52 119.58426704228035" height="119.58426704228035" width="395.52"><g><svg viewBox="0 0 395.52 119.58426704228035" height="119.58426704228035" width="395.52"><g id="textblocktransform"><svg viewBox="0 0 395.52 119.58426704228035" height="119.58426704228035" width="395.52" id="textblock"><g><svg viewBox="0 0 395.52 91.11318711535168" height="91.11318711535168" width="395.52"><path d="M394.594 19.542C392.735 10.085 387.435 7.455 387.435 7.455 371.165-2.286 350.86-0.186 332.619 1.213 300.414 1.27 268.339 3.351 236.208 4.467 168.767 4.637 100.749 1.838 33.643 8.742 27.339 10.86-6.54 9.158 1.121 20.753 3.129 25.576 10.456 30.929 10.232 35.355 11.236 36.131 12.631 34.353 13.226 35.468 15.309 38.476 18.711 37.057 21.501 38.835 17.614 43.583 20.403 47.536 23.062 51.679 18.377 52.757 12.371 52.246 9.675 55.821 9.396 58.412 7.89 57.921 6.235 57.807 5.026 57.731 2.59 58.015 2.999 58.829 4.394 61.609-1.594 63.217 2.162 65.941-0.422 68.891 3.948 71.445 3.353 74.642 3.278 75.285 3.687 75.833 4.338 75.984 7.22 76.798 3.018 78.387 3.464 80.108 33.029 91.873 65.104 83.74 95.394 89.149 103.259 85.366 97.346 90.492 100.489 89.698 102.943 88.771 104.728 92.611 107.499 90.436 107.927 89.811 107.276 88.336 108.8 88.62 109.6 88.771 110.307 88.733 110.418 87.863 110.586 86.558 109.117 87.371 108.726 86.69 112.947 83.248 111.906 91.438 115.866 91.098 115.68 90.095 114.528 88.658 116.889 88.847 119.232 87.409 119.306 86.218 121.389 89.452 121.463 90.152 121.835 90.644 122.43 90.984 128.938 87.466 135.409 92.233 142.233 90.644 146.417 88.903 150.433 91.589 154.672 90.927 156.16 90.398 157.666 89.452 159.098 91.041 176.632 91.381 195.319 89.963 211.943 91.098 256.364 88.979 303.836 91.968 350.674 89.168 361.719 88.09 373.192 86.558 383.958 85.329 383.958 85.329 392.679 81.962 392.679 66.83S394.538 53.589 394.817 41.54C395.096 29.491 396.398 29 394.538 19.542Z" opacity="1" fill="#ffffff" data-fill-palette-color="tertiary"></path><g transform="matrix(1,0,0,1,55.76832,26.068561146666667)"><svg width="283.98335999999995" viewBox="3.03 -36.04 266.08000000000004 36.53" height="38.976064822018344" data-palette-color="#282634"><path d="M21.61-11.28L26.12-11.28Q25.83-5.57 22.91-2.54 20 0.49 14.67 0.49L14.67 0.49Q9.33 0.49 6.18-3.58 3.03-7.64 3.03-14.6L3.03-14.6 3.03-21.04Q3.03-27.98 6.26-32.01 9.5-36.04 15.09-36.04L15.09-36.04Q20.24-36.04 23.06-32.95 25.88-29.86 26.12-24.12L26.12-24.12 21.61-24.12Q21.31-28.47 19.78-30.32 18.24-32.18 15.09-32.18L15.09-32.18Q11.45-32.18 9.5-29.33 7.54-26.49 7.54-21L7.54-21 7.54-14.48Q7.54-9.08 9.36-6.2 11.18-3.32 14.67-3.32 18.16-3.32 19.7-5.05 21.24-6.79 21.61-11.28L21.61-11.28ZM30.66-11.55L30.66-14.43Q30.66-20.19 33.46-23.55 36.25-26.9 40.84-26.9 45.43-26.9 48.23-23.63 51.02-20.36 51.1-14.72L51.1-14.72 51.1-11.94Q51.1-6.2 48.31-2.86 45.53 0.49 40.89 0.49L40.89 0.49Q36.3 0.49 33.53-2.76 30.76-6.01 30.66-11.55L30.66-11.55ZM34.98-14.45L34.98-11.94Q34.98-7.86 36.58-5.53 38.18-3.2 40.89-3.2L40.89-3.2Q46.6-3.2 46.77-11.45L46.77-11.45 46.77-14.43Q46.77-18.48 45.16-20.84 43.55-23.19 40.84-23.19L40.84-23.19Q38.18-23.19 36.58-20.84 34.98-18.48 34.98-14.45L34.98-14.45ZM70.23 0L70.14-2.32Q67.99 0.49 63.86 0.49L63.86 0.49Q60.27 0.49 58.44-1.99 56.61-4.47 56.59-9.2L56.59-9.2 56.59-26.42 60.88-26.42 60.88-9.52Q60.88-3.34 64.59-3.34L64.59-3.34Q68.53-3.34 70.01-6.86L70.01-6.86 70.01-26.42 74.34-26.42 74.34 0 70.23 0ZM91.72-26.56L91.74-22.36Q90.84-22.53 89.79-22.53L89.79-22.53Q86.47-22.53 85.15-18.9L85.15-18.9 85.15 0 80.83 0 80.83-26.42 85.03-26.42 85.1-23.73Q86.83-26.9 90.01-26.9L90.01-26.9Q91.03-26.9 91.72-26.56L91.72-26.56ZM108.88-6.76L108.88-6.76Q108.88-8.15 107.83-9.16 106.78-10.16 103.77-11.5L103.77-11.5Q100.28-12.94 98.85-13.96 97.43-14.99 96.72-16.3 96.01-17.6 96.01-19.41L96.01-19.41Q96.01-22.63 98.37-24.77 100.72-26.9 104.38-26.9L104.38-26.9Q108.24-26.9 110.59-24.66 112.93-22.41 112.93-18.9L112.93-18.9 108.63-18.9Q108.63-20.68 107.44-21.94 106.24-23.19 104.38-23.19L104.38-23.19Q102.48-23.19 101.39-22.2 100.31-21.22 100.31-19.56L100.31-19.56Q100.31-18.24 101.1-17.43 101.89-16.63 104.92-15.31L104.92-15.31Q109.73-13.43 111.46-11.63 113.2-9.84 113.2-7.08L113.2-7.08Q113.2-3.64 110.83-1.57 108.46 0.49 104.48 0.49L104.48 0.49Q100.36 0.49 97.79-1.88 95.23-4.25 95.23-7.89L95.23-7.89 99.57-7.89Q99.65-5.69 100.92-4.44 102.19-3.2 104.48-3.2L104.48-3.2Q106.63-3.2 107.75-4.16 108.88-5.13 108.88-6.76ZM128.26 0.49L128.26 0.49Q123.33 0.49 120.69-2.45 118.05-5.4 118.01-11.08L118.01-11.08 118.01-14.28Q118.01-20.19 120.58-23.55 123.16-26.9 127.77-26.9L127.77-26.9Q132.41-26.9 134.7-23.95 137-21 137.05-14.75L137.05-14.75 137.05-11.91 122.3-11.91 122.3-11.3Q122.3-7.06 123.9-5.13 125.5-3.2 128.5-3.2L128.5-3.2Q130.41-3.2 131.86-3.92 133.31-4.64 134.58-6.2L134.58-6.2 136.83-3.47Q134.02 0.49 128.26 0.49ZM127.77-23.19L127.77-23.19Q125.09-23.19 123.79-21.35 122.5-19.51 122.33-15.63L122.33-15.63 132.73-15.63 132.73-16.21Q132.56-19.97 131.37-21.58 130.19-23.19 127.77-23.19ZM154.28-35.55L160.04-35.55 169.32-6.54 178.6-35.55 184.36-35.55 184.36 0 179.89 0 179.89-13.84 180.3-27.71 171 0 167.59 0 158.33-27.61 158.75-13.84 158.75 0 154.28 0 154.28-35.55ZM209.53 0L205.03 0Q204.64-0.85 204.47-2.88L204.47-2.88Q202.18 0.49 198.61 0.49L198.61 0.49Q195.02 0.49 193.01-1.53 191-3.54 191-7.2L191-7.2Q191-11.23 193.73-13.6 196.46-15.97 201.23-16.02L201.23-16.02 204.4-16.02 204.4-18.82Q204.4-21.19 203.35-22.19 202.3-23.19 200.15-23.19L200.15-23.19Q198.2-23.19 196.98-22.03 195.76-20.87 195.76-19.09L195.76-19.09 191.44-19.09Q191.44-21.12 192.63-22.96 193.83-24.8 195.85-25.85 197.88-26.9 200.37-26.9L200.37-26.9Q204.42-26.9 206.54-24.89 208.65-22.88 208.7-19.02L208.7-19.02 208.7-5.69Q208.72-2.64 209.53-0.39L209.53-0.39 209.53 0ZM199.27-3.44L199.27-3.44Q200.86-3.44 202.3-4.32 203.74-5.2 204.4-6.52L204.4-6.52 204.4-12.82 201.96-12.82Q198.88-12.77 197.1-11.44 195.32-10.11 195.32-7.71L195.32-7.71Q195.32-5.47 196.22-4.46 197.12-3.44 199.27-3.44ZM215.38-26.42L219.46-26.42 219.58-23.56Q222.1-26.9 226-26.9L226-26.9Q233.01-26.9 233.11-17.55L233.11-17.55 233.11 0 228.81 0 228.81-17.36Q228.81-20.46 227.77-21.77 226.74-23.07 224.66-23.07L224.66-23.07Q223.05-23.07 221.77-22 220.49-20.92 219.7-19.19L219.7-19.19 219.7 0 215.38 0 215.38-26.42ZM244.24-26.42L244.24 0 239.92 0 239.92-26.42 244.24-26.42ZM244.58-33.42L244.58-33.42Q244.58-32.32 243.97-31.59 243.36-30.86 242.11-30.86L242.11-30.86Q240.89-30.86 240.28-31.59 239.67-32.32 239.67-33.42 239.67-34.52 240.28-35.28 240.89-36.04 242.11-36.04 243.33-36.04 243.96-35.27 244.58-34.5 244.58-33.42ZM269.11 0L264.62 0Q264.23-0.85 264.06-2.88L264.06-2.88Q261.76 0.49 258.2 0.49L258.2 0.49Q254.61 0.49 252.6-1.53 250.58-3.54 250.58-7.2L250.58-7.2Q250.58-11.23 253.32-13.6 256.05-15.97 260.81-16.02L260.81-16.02 263.99-16.02 263.99-18.82Q263.99-21.19 262.94-22.19 261.89-23.19 259.74-23.19L259.74-23.19Q257.79-23.19 256.56-22.03 255.34-20.87 255.34-19.09L255.34-19.09 251.02-19.09Q251.02-21.12 252.22-22.96 253.41-24.8 255.44-25.85 257.47-26.9 259.96-26.9L259.96-26.9Q264.01-26.9 266.12-24.89 268.23-22.88 268.28-19.02L268.28-19.02 268.28-5.69Q268.31-2.64 269.11-0.39L269.11-0.39 269.11 0ZM258.86-3.44L258.86-3.44Q260.45-3.44 261.89-4.32 263.33-5.2 263.99-6.52L263.99-6.52 263.99-12.82 261.54-12.82Q258.47-12.77 256.69-11.44 254.9-10.11 254.9-7.71L254.9-7.71Q254.9-5.47 255.81-4.46 256.71-3.44 258.86-3.44Z" opacity="1" transform="matrix(1,0,0,1,0,0)" fill="#000000" class="wordmark-text-0" data-fill-palette-color="quaternary" id="text-0"></path></svg></g></svg></g><g transform="matrix(1,0,0,1,125.95138094628348,100.31450059427448)"><svg viewBox="0 0 143.61723810743302 19.26976644800587" height="19.26976644800587" width="143.61723810743302"><g transform="matrix(1,0,0,1,0,0)"><svg width="143.61723810743302" viewBox="0.4 -38.85 368.5 49.45" height="19.26976644800587" data-palette-color="#dcdcdc"><path d="M23.95 0L19.3 0 17.25-8.75 6.95-8.75 4.9 0 0.4 0 9.35-34.45 15-34.45 23.95 0ZM12.1-30.65L7.8-12.4 16.4-12.4 12.1-30.65ZM38.75-34.45L43.3-34.45 43.3-4 54.75-4 54.25 0 38.75 0 38.75-34.45ZM75.94-13.95Q75.94-12.85 75.84-11.65L75.84-11.65 62.04-11.65Q62.24-6.9 63.62-4.95 64.99-3 67.54-3L67.54-3Q69.19-3 70.49-3.53 71.79-4.05 73.19-5.2L73.19-5.2 75.14-2.55Q71.84 0.6 67.39 0.6L67.39 0.6Q62.69 0.6 60.09-2.88 57.49-6.35 57.49-12.9L57.49-12.9Q57.49-19.45 59.97-23.18 62.44-26.9 66.94-26.9L66.94-26.9Q71.29-26.9 73.62-23.63 75.94-20.35 75.94-13.95L75.94-13.95ZM71.69-14.9L71.69-15.25Q71.69-19.55 70.54-21.5 69.39-23.45 66.94-23.45L66.94-23.45Q64.74-23.45 63.49-21.48 62.24-19.5 62.04-14.9L62.04-14.9 71.69-14.9ZM96.79-5.6Q96.79-4.2 97.19-3.53 97.59-2.85 98.49-2.45L98.49-2.45 97.54 0.6Q95.69 0.3 94.62-0.58 93.54-1.45 93.09-3.2L93.09-3.2Q90.94 0.6 86.79 0.6L86.79 0.6Q83.54 0.6 81.62-1.58 79.69-3.75 79.69-7.35L79.69-7.35Q79.69-11.55 82.29-13.78 84.89-16 89.84-16L89.84-16 92.44-16 92.44-18.4Q92.44-21 91.42-22.2 90.39-23.4 88.24-23.4L88.24-23.4Q85.69-23.4 82.29-22.05L82.29-22.05 81.19-25.15Q85.24-26.9 88.79-26.9L88.79-26.9Q92.84-26.9 94.82-24.73 96.79-22.55 96.79-18.6L96.79-18.6 96.79-5.6ZM87.69-2.7Q90.79-2.7 92.44-6.9L92.44-6.9 92.44-13.05 90.34-13.05Q87.19-13.05 85.72-11.7 84.24-10.35 84.24-7.55L84.24-7.55Q84.24-5.15 85.14-3.93 86.04-2.7 87.69-2.7L87.69-2.7ZM114.24-26.9Q115.34-26.9 116.24-26.6L116.24-26.6 115.49-22.35Q114.49-22.6 113.69-22.6L113.69-22.6Q111.74-22.6 110.49-20.85 109.24-19.1 108.54-15.5L108.54-15.5 108.54 0 104.14 0 104.14-26.35 107.94-26.35 108.29-21.45Q110.14-26.9 114.24-26.9L114.24-26.9ZM131.04-26.9Q133.89-26.9 135.59-24.85 137.29-22.8 137.29-19.35L137.29-19.35 137.29 0 132.89 0 132.89-18.75Q132.89-21.3 132.16-22.38 131.44-23.45 129.99-23.45L129.99-23.45Q127.14-23.45 124.69-18.55L124.69-18.55 124.69 0 120.29 0 120.29-26.35 124.09-26.35 124.44-22.4Q125.74-24.6 127.29-25.75 128.84-26.9 131.04-26.9L131.04-26.9ZM144.38-26.35L148.78-26.35 148.78 0 144.38 0 144.38-26.35ZM146.53-38.85Q147.88-38.85 148.68-38 149.48-37.15 149.48-35.8L149.48-35.8Q149.48-34.55 148.66-33.7 147.83-32.85 146.53-32.85L146.53-32.85Q145.23-32.85 144.41-33.7 143.58-34.55 143.58-35.8L143.58-35.8Q143.58-37.1 144.41-37.98 145.23-38.85 146.53-38.85L146.53-38.85ZM166.83-26.9Q169.68-26.9 171.38-24.85 173.08-22.8 173.08-19.35L173.08-19.35 173.08 0 168.68 0 168.68-18.75Q168.68-21.3 167.96-22.38 167.23-23.45 165.78-23.45L165.78-23.45Q162.93-23.45 160.48-18.55L160.48-18.55 160.48 0 156.08 0 156.08-26.35 159.88-26.35 160.23-22.4Q161.53-24.6 163.08-25.75 164.63-26.9 166.83-26.9L166.83-26.9ZM196.83-29.15L198.13-25.2Q196.98-24.7 195.55-24.55 194.13-24.4 191.93-24.4L191.93-24.4Q195.78-22.3 195.78-17.7L195.78-17.7Q195.78-13.65 193.53-11.23 191.28-8.8 187.33-8.8L187.33-8.8Q185.88-8.8 184.68-9.3L184.68-9.3Q184.18-8.9 183.9-8.22 183.63-7.55 183.63-6.8L183.63-6.8Q183.63-5.7 184.23-5.08 184.83-4.45 186.38-4.45L186.38-4.45 189.28-4.45Q191.73-4.45 193.58-3.5 195.43-2.55 196.4-0.93 197.38 0.7 197.38 2.65L197.38 2.65Q197.38 6.25 194.7 8.43 192.03 10.6 186.98 10.6L186.98 10.6Q181.78 10.6 179.6 8.58 177.43 6.55 177.43 2.65L177.43 2.65 181.33 2.65Q181.33 5.1 182.53 6.13 183.73 7.15 187.03 7.15L187.03 7.15Q190.23 7.15 191.63 6.08 193.03 5 193.03 2.95L193.03 2.95Q193.03-0.95 188.43-0.95L188.43-0.95 186.58-0.95Q182.98-0.95 181.33-2.27 179.68-3.6 179.68-5.85L179.68-5.85Q179.68-8.25 182.28-10.35L182.28-10.35Q178.43-12.7 178.43-17.75L178.43-17.75Q178.43-21.9 180.88-24.4 183.33-26.9 187.23-26.9L187.23-26.9Q190.73-26.9 192.73-27.45 194.73-28 196.83-29.15L196.83-29.15ZM187.18-23.75Q184.98-23.75 183.88-22.3 182.78-20.85 182.78-17.75L182.78-17.75Q182.78-15.05 183.93-13.4 185.08-11.75 187.13-11.75L187.13-11.75Q189.33-11.75 190.38-13.15 191.43-14.55 191.43-17.8L191.43-17.8Q191.43-23.75 187.18-23.75L187.18-23.75ZM219.32-34.45Q225.37-34.45 228.5-31.75 231.62-29.05 231.62-23.8L231.62-23.8Q231.62-18.2 228.45-15.48 225.27-12.75 219.42-12.75L219.42-12.75 217.17-12.75 217.17 0 212.62 0 212.62-34.45 219.32-34.45ZM219.42-16.35Q223.27-16.35 225.07-17.98 226.87-19.6 226.87-23.75L226.87-23.75Q226.87-27.5 225.05-29.18 223.22-30.85 219.42-30.85L219.42-30.85 217.17-30.85 217.17-16.35 219.42-16.35ZM240.87 0.6Q238.67 0.6 237.35-0.8 236.02-2.2 236.02-4.6L236.02-4.6 236.02-36.95 240.42-37.45 240.42-4.7Q240.42-3.05 241.82-3.05L241.82-3.05Q242.47-3.05 243.07-3.3L243.07-3.3 244.07-0.3Q242.62 0.6 240.87 0.6L240.87 0.6ZM263.67-5.6Q263.67-4.2 264.07-3.53 264.47-2.85 265.37-2.45L265.37-2.45 264.42 0.6Q262.57 0.3 261.49-0.58 260.42-1.45 259.97-3.2L259.97-3.2Q257.82 0.6 253.67 0.6L253.67 0.6Q250.42 0.6 248.49-1.58 246.57-3.75 246.57-7.35L246.57-7.35Q246.57-11.55 249.17-13.78 251.77-16 256.72-16L256.72-16 259.32-16 259.32-18.4Q259.32-21 258.29-22.2 257.27-23.4 255.12-23.4L255.12-23.4Q252.57-23.4 249.17-22.05L249.17-22.05 248.07-25.15Q252.12-26.9 255.67-26.9L255.67-26.9Q259.72-26.9 261.69-24.73 263.67-22.55 263.67-18.6L263.67-18.6 263.67-5.6ZM254.57-2.7Q257.67-2.7 259.32-6.9L259.32-6.9 259.32-13.05 257.22-13.05Q254.07-13.05 252.59-11.7 251.12-10.35 251.12-7.55L251.12-7.55Q251.12-5.15 252.02-3.93 252.92-2.7 254.57-2.7L254.57-2.7ZM280.97-3.95L282.67-1.2Q280.42 0.6 277.62 0.6L277.62 0.6Q274.67 0.6 273.04-1.15 271.42-2.9 271.42-5.85L271.42-5.85 271.42-22.9 267.87-22.9 267.87-26.35 271.42-26.35 271.42-32.3 275.81-32.85 275.81-26.35 280.92-26.35 280.47-22.9 275.81-22.9 275.81-5.8Q275.81-3.05 278.17-3.05L278.17-3.05Q278.97-3.05 279.56-3.25 280.17-3.45 280.97-3.95L280.97-3.95ZM294.31-33.9Q292.71-33.9 291.96-33.1 291.21-32.3 291.21-30.55L291.21-30.55 291.21-26.35 296.51-26.35 296.01-22.9 291.21-22.9 291.21 0 286.81 0 286.81-22.9 283.16-22.9 283.16-26.35 286.81-26.35 286.81-30.5Q286.81-33.6 288.69-35.52 290.56-37.45 293.96-37.45L293.96-37.45Q296.71-37.45 299.31-36.1L299.31-36.1 298.01-33Q296.16-33.9 294.31-33.9L294.31-33.9ZM308.96-26.9Q313.66-26.9 316.24-23.43 318.81-19.95 318.81-13.2L318.81-13.2Q318.81-6.85 316.19-3.13 313.56 0.6 308.91 0.6L308.91 0.6Q304.26 0.6 301.66-3.05 299.06-6.7 299.06-13.15L299.06-13.15Q299.06-19.8 301.66-23.35 304.26-26.9 308.96-26.9L308.96-26.9ZM308.96-23.35Q306.31-23.35 305.01-20.98 303.71-18.6 303.71-13.15L303.71-13.15Q303.71-7.75 305.01-5.35 306.31-2.95 308.91-2.95L308.91-2.95Q311.56-2.95 312.86-5.35 314.16-7.75 314.16-13.2L314.16-13.2Q314.16-18.6 312.86-20.98 311.56-23.35 308.96-23.35L308.96-23.35ZM334.81-26.9Q335.91-26.9 336.81-26.6L336.81-26.6 336.06-22.35Q335.06-22.6 334.26-22.6L334.26-22.6Q332.31-22.6 331.06-20.85 329.81-19.1 329.11-15.5L329.11-15.5 329.11 0 324.71 0 324.71-26.35 328.51-26.35 328.86-21.45Q330.71-26.9 334.81-26.9L334.81-26.9ZM363.06-26.9Q365.7-26.9 367.31-24.83 368.9-22.75 368.9-19.35L368.9-19.35 368.9 0 364.6 0 364.6-18.8Q364.6-21.3 363.93-22.4 363.25-23.5 361.95-23.5L361.95-23.5Q359.31-23.5 357.06-18.8L357.06-18.8 357.06 0 352.75 0 352.75-18.8Q352.75-23.5 350.1-23.5L350.1-23.5Q348.7-23.5 347.43-22.25 346.15-21 345.15-18.8L345.15-18.8 345.15 0 340.85 0 340.85-26.35 344.65-26.35 344.95-22.55Q347.45-26.9 351.2-26.9L351.2-26.9Q353.2-26.9 354.58-25.68 355.95-24.45 356.56-22.2L356.56-22.2Q359.25-26.9 363.06-26.9L363.06-26.9Z" opacity="1" transform="matrix(1,0,0,1,0,0)" fill="#ffffff" class="slogan-text-1" data-fill-palette-color="secondary" id="text-1"></path></svg></g></svg></g></svg></g></svg></g><g></g></svg></g><defs></defs></svg><rect width="395.52" height="119.58426704228035" fill="none" stroke="none" visibility="hidden"></rect></g></svg></g></svg>